<?xml version="1.0" encoding="UTF-8" standalone="no"?>
<!-- Created with Inkscape (http://www.inkscape.org/) -->

<svg
   xmlns:dc="http://purl.org/dc/elements/1.1/"
   xmlns:cc="http://creativecommons.org/ns#"
   xmlns:rdf="http://www.w3.org/1999/02/22-rdf-syntax-ns#"
   xmlns:svg="http://www.w3.org/2000/svg"
   xmlns="http://www.w3.org/2000/svg"
   xmlns:sodipodi="http://sodipodi.sourceforge.net/DTD/sodipodi-0.dtd"
   xmlns:inkscape="http://www.inkscape.org/namespaces/inkscape"
   sodipodi:docname="grid.svg"
   width="85.646378mm"
   height="81.241821mm"
   viewBox="0 0 303.47142 287.86472"
   id="svg2"
   version="1.1"
   inkscape:version="0.91 r13725">
  <sodipodi:namedview
     inkscape:bbox-nodes="true"
     inkscape:snap-bbox="true"
     id="base"
     pagecolor="#ffffff"
     bordercolor="#666666"
     borderopacity="1.0"
     inkscape:pageopacity="0.0"
     inkscape:pageshadow="2"
     inkscape:zoom="1.9121398"
     inkscape:cx="29.019549"
     inkscape:cy="133.27678"
     inkscape:document-units="px"
     inkscape:current-layer="svg2"
     showgrid="true"
     inkscape:window-width="1280"
     inkscape:window-height="1000"
     inkscape:window-x="46"
     inkscape:window-y="24"
     inkscape:window-maximized="1"
     showguides="false"
     fit-margin-top="5"
     fit-margin-left="5"
     fit-margin-right="5"
     fit-margin-bottom="5">
    <inkscape:grid
       id="grid4136"
       type="xygrid"
       originx="-144.68458"
       originy="-552.28346" />
  </sodipodi:namedview>
  <defs
     id="defs4">
    <marker
       inkscape:stockid="Arrow1Send"
       orient="auto"
       refY="0"
       refX="0"
       id="marker10896"
       style="overflow:visible"
       inkscape:isstock="true">
      <path
         id="path10898"
         d="M 0,0 5,-5 -12.5,0 5,5 0,0 Z"
         style="fill:#0000ff;fill-opacity:1;fill-rule:evenodd;stroke:#0000ff;stroke-width:1pt;stroke-opacity:1"
         transform="matrix(-0.2,0,0,-0.2,-1.2,0)"
         inkscape:connector-curvature="0" />
    </marker>
    <marker
       inkscape:isstock="true"
       style="overflow:visible"
       id="marker10784"
       refX="0"
       refY="0"
       orient="auto"
       inkscape:stockid="Arrow1Send"
       inkscape:collect="always">
      <path
         transform="matrix(-0.2,0,0,-0.2,-1.2,0)"
         style="fill:#0000ff;fill-opacity:1;fill-rule:evenodd;stroke:#0000ff;stroke-width:1pt;stroke-opacity:1"
         d="M 0,0 5,-5 -12.5,0 5,5 0,0 Z"
         id="path10786"
         inkscape:connector-curvature="0" />
    </marker>
    <marker
       inkscape:isstock="true"
       style="overflow:visible"
       id="marker10662"
       refX="0"
       refY="0"
       orient="auto"
       inkscape:stockid="Arrow1Send">
      <path
         transform="matrix(-0.2,0,0,-0.2,-1.2,0)"
         style="fill:#0000ff;fill-opacity:1;fill-rule:evenodd;stroke:#0000ff;stroke-width:1pt;stroke-opacity:1"
         d="M 0,0 5,-5 -12.5,0 5,5 0,0 Z"
         id="path10664"
         inkscape:connector-curvature="0" />
    </marker>
    <marker
       inkscape:stockid="Arrow1Send"
       orient="auto"
       refY="0"
       refX="0"
       id="marker10302"
       style="overflow:visible"
       inkscape:isstock="true"
       inkscape:collect="always">
      <path
         id="path10304"
         d="M 0,0 5,-5 -12.5,0 5,5 0,0 Z"
         style="fill:#0000ff;fill-opacity:1;fill-rule:evenodd;stroke:#0000ff;stroke-width:1pt;stroke-opacity:1"
         transform="matrix(-0.2,0,0,-0.2,-1.2,0)"
         inkscape:connector-curvature="0" />
    </marker>
    <marker
       inkscape:stockid="Arrow1Send"
       orient="auto"
       refY="0"
       refX="0"
       id="Arrow1Send"
       style="overflow:visible"
       inkscape:isstock="true"
       inkscape:collect="always">
      <path
         id="path9930"
         d="M 0,0 5,-5 -12.5,0 5,5 0,0 Z"
         style="fill:#0000ff;fill-opacity:1;fill-rule:evenodd;stroke:#0000ff;stroke-width:1pt;stroke-opacity:1"
         transform="matrix(-0.2,0,0,-0.2,-1.2,0)"
         inkscape:connector-curvature="0" />
    </marker>
    <marker
       inkscape:stockid="Arrow1Mend"
       orient="auto"
       refY="0"
       refX="0"
       id="Arrow1Mend"
       style="overflow:visible"
       inkscape:isstock="true">
      <path
         id="path9924"
         d="M 0,0 5,-5 -12.5,0 5,5 0,0 Z"
         style="fill:#000000;fill-opacity:1;fill-rule:evenodd;stroke:#000000;stroke-width:1pt;stroke-opacity:1"
         transform="matrix(-0.4,0,0,-0.4,-4,0)"
         inkscape:connector-curvature="0" />
    </marker>
    <marker
       inkscape:isstock="true"
       style="overflow:visible"
       id="marker10784-6"
       refX="0"
       refY="0"
       orient="auto"
       inkscape:stockid="Arrow1Send"
       inkscape:collect="always">
      <path
         inkscape:connector-curvature="0"
         transform="matrix(-0.2,0,0,-0.2,-1.2,0)"
         style="fill:#0000ff;fill-opacity:1;fill-rule:evenodd;stroke:#0000ff;stroke-width:1pt;stroke-opacity:1"
         d="M 0,0 5,-5 -12.5,0 5,5 0,0 Z"
         id="path10786-1" />
    </marker>
  </defs>
  <metadata
     id="metadata7">
    <rdf:RDF>
      <cc:Work
         rdf:about="">
        <dc:format>image/svg+xml</dc:format>
        <dc:type
           rdf:resource="http://purl.org/dc/dcmitype/StillImage" />
        <dc:title></dc:title>
      </cc:Work>
    </rdf:RDF>
  </metadata>
  <g
     id="layer1"
     inkscape:groupmode="layer"
     inkscape:label="Ebene 1"
     transform="translate(-144.68458,-212.21404)" />
  <rect
     y="40.507244"
     x="55.674511"
     height="199.28183"
     width="199.28183"
     id="rect5424"
     style="fill:none;fill-opacity:0.38367345;stroke:#000000;stroke-width:0.71816194;stroke-miterlimit:4;stroke-dasharray:none;stroke-dashoffset:0" />
  <path
     id="path5448"
     style="fill:#999999;fill-opacity:0.75;fill-rule:evenodd;stroke:#808080;stroke-width:1;stroke-linecap:butt;stroke-linejoin:miter;stroke-miterlimit:4;stroke-dasharray:none;stroke-opacity:1"
     d="m 55.315425,40.148163 0,199.999987 m 20,-199.999987 0,199.999987 m 20,-199.999987 0,199.999987 m 19.999995,-199.999987 0,199.999987 m 20,-199.999987 0,199.999987 m 20,-199.999987 0,199.999987 m 20,-199.999987 0,199.999987 m 20,-199.999987 0,199.999987 m 20,-199.999987 0,199.999987 m 20,-199.999987 0,199.999987 M 55.315425,40.148163 l 199.999995,0 m -199.999995,20 199.999995,0 m -199.999995,20 199.999995,0 m -199.999995,19.999997 199.999995,0 m -199.999995,20 199.999995,0 m -199.999995,20 199.999995,0 m -199.999995,20 199.999995,0 m -199.999995,20 199.999995,0 m -199.999995,20 199.999995,0 m -199.999995,20 199.999995,0"
     inkscape:connector-curvature="0" />
  <text
     sodipodi:linespacing="125%"
     id="text5450"
     y="250.00658"
     x="44.656246"
     style="font-style:normal;font-weight:normal;font-size:17.5px;line-height:125%;font-family:sans-serif;letter-spacing:0px;word-spacing:0px;fill:#000000;fill-opacity:1;stroke:none;stroke-width:1px;stroke-linecap:butt;stroke-linejoin:miter;stroke-opacity:1"
     xml:space="preserve"><tspan
       style="font-size:10px"
       y="250.00658"
       x="44.656246"
       id="tspan5452"
       sodipodi:role="line">0</tspan></text>
  <text
     sodipodi:linespacing="125%"
     id="text5450-3"
     y="250.00658"
     x="69.61718"
     style="font-style:normal;font-weight:normal;font-size:17.5px;line-height:125%;font-family:sans-serif;letter-spacing:0px;word-spacing:0px;fill:#000000;fill-opacity:1;stroke:none;stroke-width:1px;stroke-linecap:butt;stroke-linejoin:miter;stroke-opacity:1"
     xml:space="preserve"><tspan
       style="font-size:10px"
       y="250.00658"
       x="69.61718"
       id="tspan5452-6"
       sodipodi:role="line">1</tspan></text>
  <text
     sodipodi:linespacing="125%"
     id="text5450-7"
     y="250.00658"
     x="89.61718"
     style="font-style:normal;font-weight:normal;font-size:17.5px;line-height:125%;font-family:sans-serif;letter-spacing:0px;word-spacing:0px;fill:#000000;fill-opacity:1;stroke:none;stroke-width:1px;stroke-linecap:butt;stroke-linejoin:miter;stroke-opacity:1"
     xml:space="preserve"><tspan
       style="font-size:10px"
       y="250.00658"
       x="89.61718"
       id="tspan5452-5"
       sodipodi:role="line">2</tspan></text>
  <text
     sodipodi:linespacing="125%"
     id="text5450-35"
     y="250.00658"
     x="109.61718"
     style="font-style:normal;font-weight:normal;font-size:17.5px;line-height:125%;font-family:sans-serif;letter-spacing:0px;word-spacing:0px;fill:#000000;fill-opacity:1;stroke:none;stroke-width:1px;stroke-linecap:butt;stroke-linejoin:miter;stroke-opacity:1"
     xml:space="preserve"><tspan
       style="font-size:10px"
       y="250.00658"
       x="109.61718"
       id="tspan5452-62"
       sodipodi:role="line">3</tspan></text>
  <text
     sodipodi:linespacing="125%"
     id="text5450-9"
     y="250.00658"
     x="129.61719"
     style="font-style:normal;font-weight:normal;font-size:17.5px;line-height:125%;font-family:sans-serif;letter-spacing:0px;word-spacing:0px;fill:#000000;fill-opacity:1;stroke:none;stroke-width:1px;stroke-linecap:butt;stroke-linejoin:miter;stroke-opacity:1"
     xml:space="preserve"><tspan
       style="font-size:10px"
       y="250.00658"
       x="129.61719"
       id="tspan5452-1"
       sodipodi:role="line">4</tspan></text>
  <text
     sodipodi:linespacing="125%"
     id="text5450-2"
     y="250.00658"
     x="149.61719"
     style="font-style:normal;font-weight:normal;font-size:17.5px;line-height:125%;font-family:sans-serif;letter-spacing:0px;word-spacing:0px;fill:#000000;fill-opacity:1;stroke:none;stroke-width:1px;stroke-linecap:butt;stroke-linejoin:miter;stroke-opacity:1"
     xml:space="preserve"><tspan
       style="font-size:10px"
       y="250.00658"
       x="149.61719"
       id="tspan5452-7"
       sodipodi:role="line">5</tspan></text>
  <text
     sodipodi:linespacing="125%"
     id="text5450-0"
     y="250.00658"
     x="169.61719"
     style="font-style:normal;font-weight:normal;font-size:17.5px;line-height:125%;font-family:sans-serif;letter-spacing:0px;word-spacing:0px;fill:#000000;fill-opacity:1;stroke:none;stroke-width:1px;stroke-linecap:butt;stroke-linejoin:miter;stroke-opacity:1"
     xml:space="preserve"><tspan
       style="font-size:10px"
       y="250.00658"
       x="169.61719"
       id="tspan5452-9"
       sodipodi:role="line">6</tspan></text>
  <text
     sodipodi:linespacing="125%"
     id="text5450-36"
     y="250.00658"
     x="189.61719"
     style="font-style:normal;font-weight:normal;font-size:17.5px;line-height:125%;font-family:sans-serif;letter-spacing:0px;word-spacing:0px;fill:#000000;fill-opacity:1;stroke:none;stroke-width:1px;stroke-linecap:butt;stroke-linejoin:miter;stroke-opacity:1"
     xml:space="preserve"><tspan
       style="font-size:10px"
       y="250.00658"
       x="189.61719"
       id="tspan5452-0"
       sodipodi:role="line">7</tspan></text>
  <text
     sodipodi:linespacing="125%"
     id="text5450-6"
     y="250.00658"
     x="209.61719"
     style="font-style:normal;font-weight:normal;font-size:17.5px;line-height:125%;font-family:sans-serif;letter-spacing:0px;word-spacing:0px;fill:#000000;fill-opacity:1;stroke:none;stroke-width:1px;stroke-linecap:butt;stroke-linejoin:miter;stroke-opacity:1"
     xml:space="preserve"><tspan
       style="font-size:10px"
       y="250.00658"
       x="209.61719"
       id="tspan5452-2"
       sodipodi:role="line">8</tspan></text>
  <text
     sodipodi:linespacing="125%"
     id="text5450-61"
     y="250.00658"
     x="229.61719"
     style="font-style:normal;font-weight:normal;font-size:17.5px;line-height:125%;font-family:sans-serif;letter-spacing:0px;word-spacing:0px;fill:#000000;fill-opacity:1;stroke:none;stroke-width:1px;stroke-linecap:butt;stroke-linejoin:miter;stroke-opacity:1"
     xml:space="preserve"><tspan
       style="font-size:10px"
       y="250.00658"
       x="229.61719"
       id="tspan5452-8"
       sodipodi:role="line">9</tspan></text>
  <text
     sodipodi:linespacing="125%"
     id="text5450-79"
     y="250.00658"
     x="249.61719"
     style="font-style:normal;font-weight:normal;font-size:17.5px;line-height:125%;font-family:sans-serif;letter-spacing:0px;word-spacing:0px;fill:#000000;fill-opacity:1;stroke:none;stroke-width:1px;stroke-linecap:butt;stroke-linejoin:miter;stroke-opacity:1"
     xml:space="preserve"><tspan
       style="font-size:10px"
       y="250.00658"
       x="249.61719"
       id="tspan5452-20"
       sodipodi:role="line">10</tspan></text>
  <text
     sodipodi:linespacing="125%"
     id="text5544"
     y="250.14815"
     x="155.31543"
     style="font-style:normal;font-weight:normal;font-size:40px;line-height:125%;font-family:sans-serif;letter-spacing:0px;word-spacing:0px;fill:#000000;fill-opacity:1;stroke:none;stroke-width:1px;stroke-linecap:butt;stroke-linejoin:miter;stroke-opacity:1"
     xml:space="preserve"><tspan
       y="250.14815"
       x="155.31543"
       id="tspan5546"
       sodipodi:role="line" /></text>
  <text
     sodipodi:linespacing="125%"
     id="text5450-3-2"
     y="225.00658"
     x="44.617184"
     style="font-style:normal;font-weight:normal;font-size:17.5px;line-height:125%;font-family:sans-serif;letter-spacing:0px;word-spacing:0px;fill:#000000;fill-opacity:1;stroke:none;stroke-width:1px;stroke-linecap:butt;stroke-linejoin:miter;stroke-opacity:1"
     xml:space="preserve"><tspan
       style="font-size:10px"
       y="225.00658"
       x="44.617184"
       id="tspan5452-6-3"
       sodipodi:role="line">1</tspan></text>
  <text
     sodipodi:linespacing="125%"
     id="text5450-3-2-7"
     y="205.00658"
     x="44.617184"
     style="font-style:normal;font-weight:normal;font-size:17.5px;line-height:125%;font-family:sans-serif;letter-spacing:0px;word-spacing:0px;fill:#000000;fill-opacity:1;stroke:none;stroke-width:1px;stroke-linecap:butt;stroke-linejoin:miter;stroke-opacity:1"
     xml:space="preserve"><tspan
       style="font-size:10px"
       y="205.00658"
       x="44.617184"
       id="tspan5452-6-3-5"
       sodipodi:role="line">2</tspan></text>
  <text
     sodipodi:linespacing="125%"
     id="text5450-3-2-9"
     y="185.00658"
     x="44.617184"
     style="font-style:normal;font-weight:normal;font-size:17.5px;line-height:125%;font-family:sans-serif;letter-spacing:0px;word-spacing:0px;fill:#000000;fill-opacity:1;stroke:none;stroke-width:1px;stroke-linecap:butt;stroke-linejoin:miter;stroke-opacity:1"
     xml:space="preserve"><tspan
       style="font-size:10px"
       y="185.00658"
       x="44.617184"
       id="tspan5452-6-3-2"
       sodipodi:role="line">3</tspan></text>
  <text
     sodipodi:linespacing="125%"
     id="text5450-3-2-2"
     y="165.00658"
     x="44.617184"
     style="font-style:normal;font-weight:normal;font-size:17.5px;line-height:125%;font-family:sans-serif;letter-spacing:0px;word-spacing:0px;fill:#000000;fill-opacity:1;stroke:none;stroke-width:1px;stroke-linecap:butt;stroke-linejoin:miter;stroke-opacity:1"
     xml:space="preserve"><tspan
       style="font-size:10px"
       y="165.00658"
       x="44.617184"
       id="tspan5452-6-3-8"
       sodipodi:role="line">4</tspan></text>
  <text
     sodipodi:linespacing="125%"
     id="text5450-3-2-97"
     y="145.00658"
     x="44.617184"
     style="font-style:normal;font-weight:normal;font-size:17.5px;line-height:125%;font-family:sans-serif;letter-spacing:0px;word-spacing:0px;fill:#000000;fill-opacity:1;stroke:none;stroke-width:1px;stroke-linecap:butt;stroke-linejoin:miter;stroke-opacity:1"
     xml:space="preserve"><tspan
       style="font-size:10px"
       y="145.00658"
       x="44.617184"
       id="tspan5452-6-3-3"
       sodipodi:role="line">5</tspan></text>
  <text
     sodipodi:linespacing="125%"
     id="text5450-3-2-6"
     y="125.00658"
     x="44.617184"
     style="font-style:normal;font-weight:normal;font-size:17.5px;line-height:125%;font-family:sans-serif;letter-spacing:0px;word-spacing:0px;fill:#000000;fill-opacity:1;stroke:none;stroke-width:1px;stroke-linecap:butt;stroke-linejoin:miter;stroke-opacity:1"
     xml:space="preserve"><tspan
       style="font-size:10px"
       y="125.00658"
       x="44.617184"
       id="tspan5452-6-3-1"
       sodipodi:role="line">6</tspan></text>
  <text
     sodipodi:linespacing="125%"
     id="text5450-3-2-29"
     y="105.00658"
     x="44.617184"
     style="font-style:normal;font-weight:normal;font-size:17.5px;line-height:125%;font-family:sans-serif;letter-spacing:0px;word-spacing:0px;fill:#000000;fill-opacity:1;stroke:none;stroke-width:1px;stroke-linecap:butt;stroke-linejoin:miter;stroke-opacity:1"
     xml:space="preserve"><tspan
       style="font-size:10px"
       y="105.00658"
       x="44.617184"
       id="tspan5452-6-3-31"
       sodipodi:role="line">7</tspan></text>
  <text
     sodipodi:linespacing="125%"
     id="text5450-3-2-94"
     y="85.006577"
     x="44.617184"
     style="font-style:normal;font-weight:normal;font-size:17.5px;line-height:125%;font-family:sans-serif;letter-spacing:0px;word-spacing:0px;fill:#000000;fill-opacity:1;stroke:none;stroke-width:1px;stroke-linecap:butt;stroke-linejoin:miter;stroke-opacity:1"
     xml:space="preserve"><tspan
       style="font-size:10px"
       y="85.006577"
       x="44.617184"
       id="tspan5452-6-3-7"
       sodipodi:role="line">8</tspan></text>
  <text
     sodipodi:linespacing="125%"
     id="text5450-3-2-8"
     y="65.006577"
     x="44.617184"
     style="font-style:normal;font-weight:normal;font-size:17.5px;line-height:125%;font-family:sans-serif;letter-spacing:0px;word-spacing:0px;fill:#000000;fill-opacity:1;stroke:none;stroke-width:1px;stroke-linecap:butt;stroke-linejoin:miter;stroke-opacity:1"
     xml:space="preserve"><tspan
       style="font-size:10px"
       y="65.006577"
       x="44.617184"
       id="tspan5452-6-3-4"
       sodipodi:role="line">9</tspan></text>
  <text
     sodipodi:linespacing="125%"
     id="text5450-3-2-5"
     y="45.006573"
     x="38.249996"
     style="font-style:normal;font-weight:normal;font-size:17.5px;line-height:125%;font-family:sans-serif;letter-spacing:0px;word-spacing:0px;fill:#000000;fill-opacity:1;stroke:none;stroke-width:1px;stroke-linecap:butt;stroke-linejoin:miter;stroke-opacity:1"
     xml:space="preserve"><tspan
       style="font-size:10px"
       y="45.006573"
       x="38.249996"
       id="tspan5452-6-3-0"
       sodipodi:role="line">10</tspan></text>
  <path
     style="fill:none;fill-opacity:0.38367345;stroke:#ff6600;stroke-width:1.5;stroke-miterlimit:4;stroke-dasharray:none;stroke-dashoffset:0"
     d="m 95.683425,143.00121 c 1.1053,-0.53572 2.20823,-1.0692 3.15043,-1.45203 0.94219,-0.38282 1.719185,-0.61082 2.235275,-0.59425 0.51607,0.0166 0.76849,0.28028 0.76139,0.78723 -0.007,0.50694 -0.27363,1.25707 -0.6972,2.15437 -0.42356,0.8973 -1.00132,1.93914 -1.572445,2.97476 -0.57114,1.03563 -1.13115,2.06082 -1.52349,2.92886 -0.39233,0.86802 -0.61255,1.57475 -0.56935,2.03455 0.0432,0.4598 0.35247,0.67022 0.91832,0.64014 0.56585,-0.03 1.3881,-0.30049 2.360165,-0.71132 0.97206,-0.41082 2.09101,-0.95933 3.19464,-1.49347 1.10363,-0.53415 2.18742,-1.0497 3.09674,-1.40171 0.90933,-0.35202 1.63981,-0.53642 2.10461,-0.47179 0.46481,0.0646 0.66143,0.38063 0.60464,0.93417 -0.0568,0.55352 -0.36667,1.34427 -0.81902,2.26855 -0.45234,0.92428 -1.04409,1.97922 -1.61186,3.0117 -0.56778,1.03247 -1.10701,2.03819 -1.46516,2.87418 -0.35814,0.83599 -0.53089,1.49822 -0.43599,1.90956 0.0949,0.41134 0.45983,0.56958 1.07476,0.49349 0.61493,-0.0761 1.47938,-0.38603 2.47878,-0.82249 0.99941,-0.43645 2.13062,-0.99646 3.22922,-1.52588 1.09859,-0.52943 2.15996,-1.02396 3.03382,-1.34273 0.87386,-0.31879 1.55597,-0.45783 1.9687,-0.34439 0.41272,0.11344 0.55385,0.48146 0.44865,1.08036 -0.10526,0.5989 -0.45608,1.42808 -0.9343,2.37662 -0.47822,0.94854 -1.08052,2.01336 -1.64158,3.03954 -0.56105,1.02618 -1.07624,2.00937 -1.39769,2.81096 -0.32144,0.80158 -0.44496,1.41764 -0.29766,1.77988 0.1473,0.36223 0.56751,0.46867 1.23012,0.34789 0.66261,-0.12077 1.56683,-0.46801 2.59063,-0.92733 1.0238,-0.45932 2.16381,-1.02756 3.25401,-1.54913 1.0902,-0.52155 2.12596,-0.99208 2.96191,-1.27533 0.83596,-0.28324 1.468,-0.37537 1.82807,-0.21257 0.36008,0.16279 0.4462,0.58237 0.2941,1.22522 -0.1521,0.64287 -0.54151,1.50815 -1.04261,2.47813 -0.5011,0.96999 -1.11043,2.04141 -1.66144,3.05817 -0.551,1.01676 -1.03902,1.97447 -1.32138,2.73943 -0.28238,0.76498 -0.35508,1.33341 -0.15491,1.64609 0.20017,0.31267 0.67505,0.36787 1.38374,0.2039 0.70869,-0.16397 1.65012,-0.54609 2.69527,-1.02542 1.04514,-0.47932 2.19043,-1.05252 3.26893,-1.56311 1.0785,-0.51058 2.08554,-0.95419 2.88129,-1.19976 0.79576,-0.24557 1.37628,-0.28941 1.68332,-0.0769 0.30704,0.21251 0.33889,0.68295 0.14157,1.36819 -0.19732,0.68525 -0.62259,1.58415 -1.14349,2.57269 -0.52089,0.98853 -1.13373,2.06324 -1.67139,3.06749 -0.53765,1.00425 -0.99545,1.93364 -1.23654,2.65991 -0.24109,0.72626 -0.2616,1.24579 -0.008,1.50866 0.25331,0.26286 0.78201,0.26761 1.53501,0.0621 0.75298,-0.2055 1.72893,-0.61995 2.79228,-1.11635 1.06336,-0.4964 2.21039,-1.07121 3.27392,-1.56777 1.06352,-0.49656 2.03886,-0.91045 2.79228,-1.11635 0.75344,-0.20591 1.28117,-0.20025 1.53501,0.0621 0.25385,0.26237 0.23238,0.78278 -0.008,1.50866 -0.24067,0.72588 -0.69903,1.6558 -1.23654,2.65991 -0.53752,1.00411 -1.15032,2.07879 -1.67139,3.06749 -0.52108,0.9887 -0.94573,1.88703 -1.1435,2.57269 -0.19775,0.68566 -0.16493,1.15519 0.14158,1.36819 0.30651,0.213 0.88797,0.16828 1.68332,-0.0769 0.79534,-0.24519 1.80292,-0.68931 2.88129,-1.19977 1.07836,-0.51046 2.22358,-1.08359 3.26892,-1.56311 1.04536,-0.47951 1.98614,-0.86101 2.69528,-1.02541 0.70915,-0.16439 1.18304,-0.10827 1.38374,0.2039 0.20069,0.31218 0.12707,0.88149 -0.15491,1.64608 -0.28196,0.76459 -0.77049,1.72279 -1.32138,2.73944 -0.5509,1.01664 -1.16013,2.08798 -1.66144,3.05816 -0.50131,0.97019 -0.89005,1.83484 -1.04261,2.47814 -0.15256,0.64328 -0.0655,1.06193 0.29409,1.22522 0.35955,0.16329 0.99251,0.0703 1.82808,-0.21257 0.83556,-0.2829 1.8718,-0.75387 2.96191,-1.27534 1.0901,-0.52146 2.22998,-1.08958 3.254,-1.54912 1.02404,-0.45954 1.92757,-0.80612 2.59064,-0.92733 0.66308,-0.12121 1.08229,-0.0139 1.23012,0.34788 0.14782,0.36175 0.0234,0.97866 -0.29767,1.77989 -0.32106,0.80123 -0.83672,1.78486 -1.39769,2.81096 -0.56098,1.0261 -1.1631,2.09078 -1.64157,3.03954 -0.47847,0.94877 -0.82863,1.77727 -0.9343,2.37662 -0.10571,0.59934 0.0364,0.96643 0.44865,1.08036 0.4122,0.11393 1.0952,-0.026 1.9687,-0.34439 0.87349,-0.31844 1.9353,-0.81338 3.03382,-1.34273 1.09853,-0.52936 2.22954,-1.08919 3.22922,-1.52588 0.99966,-0.4367 1.86335,-0.74596 2.47878,-0.82249 0.61541,-0.0765 0.97934,0.0827 1.07476,0.49349 0.0954,0.41086 -0.0782,1.0739 -0.436,1.90956 -0.35779,0.83565 -0.89742,1.84175 -1.46515,2.87418 -0.56772,1.03243 -1.15925,2.08717 -1.61186,3.0117 -0.45262,0.92454 -0.76173,1.71456 -0.81902,2.26855 -0.0573,0.554 0.14034,0.86905 0.60463,0.93417 0.46429,0.0651 1.19564,-0.12008 2.10461,-0.47179 0.90898,-0.35169 1.99315,-0.86759 3.09675,-1.40171 1.1036,-0.53411 2.22228,-1.08238 3.19464,-1.49347 0.97235,-0.4111 1.79381,-0.68077 2.36017,-0.71132 0.56635,-0.0306 0.8746,0.18082 0.91832,0.64014 0.0437,0.45932 -0.17736,1.16683 -0.56936,2.03455 -0.392,0.86772 -0.95237,1.89325 -1.52348,2.92886 -0.57112,1.03561 -1.14859,2.07717 -1.57246,2.97475 -0.42386,0.8976 -0.6896,1.64697 -0.69719,2.15438 -0.008,0.50741 0.24582,0.77018 0.76139,0.78723 0.51557,0.017 1.2934,-0.21172 2.23528,-0.59425 0.94189,-0.38254 2.04512,-0.91632 3.15043,-1.45203"
     title="sin(x)"
     id="path9747"
     inkscape:connector-curvature="0" />
  <path
     id="path9855"
     title="sin(x)"
     d="m 21.160855,212.51789 c -1.25784,-1.734 -2.45485,-3.40718 -2.66184,-4.09033 -0.20699,-0.68316 0.61578,-0.33656 2.08548,0.65698 1.4697,0.99353 3.49008,2.53775 4.90463,3.47612 1.41455,0.93838 2.12635,1.17402 1.83144,0.40294 -0.2949,-0.77107 -1.55781,-2.51014 -2.8127,-4.24119 -1.25489,-1.73106 -2.38187,-3.3342 -2.49739,-3.92589 -0.11551,-0.59168 0.81294,-0.1394 2.334,0.9055 1.52107,1.04491 3.53419,2.58186 4.88775,3.45926 1.35358,0.87741 1.95539,1.00305 1.57291,0.1444 -0.38248,-0.85864 -1.70344,-2.65576 -2.94936,-4.37785 -1.24592,-1.72209 -2.29739,-3.24972 -2.32,-3.7485 -0.0226,-0.49878 1.00872,0.0564 2.57599,1.1475 1.56728,1.09111 3.56597,2.61364 4.85409,3.42557 1.28811,0.81195 1.77846,0.82614 1.3109,-0.11759 -0.46756,-0.94373 -1.84028,-2.79261 -3.07127,-4.49977 -1.23098,-1.70714 -2.20172,-3.15405 -2.13039,-3.55888 0.0713,-0.40484 1.20237,0.25003 2.8105,1.38199 1.60812,1.13196 3.5853,2.63298 4.80373,3.37524 1.21841,0.74225 1.5963,0.64396 1.0465,-0.382 -0.5498,-1.02596 -1.9678,-2.92013 -3.17793,-4.60642 -1.21013,-1.6863 -2.09529,-3.04763 -1.92934,-3.35784 0.16596,-0.31021 1.39309,0.44076 3.03656,1.60806 1.64346,1.1673 3.59214,2.63979 4.73692,3.30841 1.14478,0.66861 1.40962,0.45729 0.78079,-0.64771 -0.62887,-1.10503 -2.08548,-3.03781 -3.26892,-4.69742 -1.18344,-1.6596 -1.9785,-2.93083 -1.71763,-3.14613 0.26085,-0.21531 1.58012,0.62779 3.25326,1.82477 1.67313,1.19697 3.58641,2.63408 4.6539,3.2254 1.06749,0.59133 1.2192,0.26687 0.51476,-0.91373 -0.70443,-1.1806 -2.19283,-3.14516 -3.34387,-4.77237 -1.15103,-1.6272 -1.85182,-2.80416 -1.49613,-2.92463 0.35568,-0.12049 1.7627,0.81037 3.45974,2.03125 1.69704,1.22087 3.56817,2.61582 4.55503,3.12652 0.98686,0.51069 1.02578,0.0734 0.24956,-1.17894 -0.77622,-1.25238 -2.28945,-3.24178 -3.40248,-4.83098 -1.11303,-1.58919 -1.71577,-2.66811 -1.26574,-2.69424 0.45004,-0.0261 1.94011,0.98779 3.65517,2.22668 1.71507,1.2389 3.53747,2.58513 4.44069,3.01219 0.90322,0.42706 0.83014,-0.1222 -0.0138,-1.44227 -0.84391,-1.32007 -2.37493,-3.32726 -3.44451,-4.87301 -1.06959,-1.54575 -1.57091,-2.52324 -1.02738,-2.45587 0.54353,0.0674 2.11163,1.15929 3.83876,2.41026 1.72714,1.25097 3.49445,2.5421 4.31135,2.88284 0.8169,0.34073 0.63308,-0.31926 -0.27417,-1.70267 -0.90725,-1.38341 -2.44892,-3.40125 -3.4698,-4.8983 -1.02088,-1.49704 -1.41779,-2.37012 -0.782,-2.21049 0.63579,0.15962 2.27655,1.32422 4.00977,2.58127 1.73322,1.25705 3.43926,2.48693 4.16751,2.73901 0.72824,0.25208 0.43536,-0.51697 -0.53059,-1.95908 -0.96597,-1.44214 -2.51114,-3.46348 -3.47824,-4.90674 -0.96711,-1.44327 -1.25704,-2.20937 -0.53059,-1.95909 0.72646,0.25029 2.43422,1.48189 4.16751,2.73901 1.73328,1.25712 3.37215,2.41981 4.00977,2.58127 0.63762,0.16145 0.23786,-0.71448 -0.78199,-2.2105 -1.01985,-1.49601 -2.56134,-3.51366 -3.46981,-4.8983 -0.90847,-1.38463 -1.08932,-2.04165 -0.27416,-1.70266 0.81514,0.33898 2.58401,1.63168 4.31133,2.88284 1.72732,1.25115 3.29338,2.34105 3.83877,2.41026 0.54538,0.0692 0.0413,-0.91104 -1.02738,-2.45587 -1.06867,-1.54483 -2.59929,-3.55162 -3.44452,-4.87301 -0.84521,-1.32139 -0.91528,-1.86762 -0.0138,-1.44227 0.90152,0.42536 2.72532,1.773 4.44068,3.01219 1.71537,1.23919 3.20327,2.25092 3.65519,2.22668 0.45191,-0.0243 -0.15354,-1.10587 -1.26575,-2.69425 -1.11222,-1.58838 -2.62487,-3.5772 -3.40248,-4.83098 -0.77761,-1.25377 -0.73566,-1.68799 0.24956,-1.17893 0.98522,0.50905 2.85757,1.90524 4.55503,3.12653 1.69746,1.22129 3.10217,2.14983 3.45974,2.03124 0.35759,-0.11858 -0.34581,-1.29814 -1.49614,-2.92463 -1.15032,-1.6265 -2.63795,-3.59029 -3.34386,-4.77236 -0.70591,-1.18208 -0.55116,-1.50349 0.51476,-0.91374 1.06591,0.58975 2.98023,2.0279 4.6539,3.2254 1.67368,1.19751 2.9905,2.03816 3.25327,1.82476 0.26276,-0.2134 -0.53479,-1.48711 -1.71763,-3.14613 -1.18286,-1.65902 -2.63852,-3.59084 -3.26892,-4.69741 -0.63041,-1.10658 -0.36251,-1.31484 0.78078,-0.64771 1.14328,0.6671 3.0928,2.14046 4.73692,3.30841 1.64412,1.16795 2.8687,1.91638 3.03656,1.60806 0.16786,-0.30829 -0.71969,-1.67201 -1.92934,-3.35783 -1.20966,-1.68582 -2.62652,-3.57885 -3.17793,-4.60643 -0.55141,-1.02757 -0.17048,-1.12281 1.0465,-0.38199 1.21699,0.74082 3.19484,2.24251 4.80373,3.37523 1.6089,1.13271 2.73728,1.78494 2.8105,1.38199 0.0732,-0.40294 -0.89977,-1.8521 -2.13039,-3.55889 -1.23063,-1.70679 -2.60203,-3.55436 -3.07127,-4.49977 -0.46923,-0.94539 0.0241,-0.92818 1.31091,-0.11759 1.28675,0.81059 3.28593,2.3336 4.85407,3.42558 1.56815,1.09198 2.59675,1.64441 2.576,1.1475 -0.0207,-0.49691 -1.07432,-2.02665 -2.32,-3.7485 -1.24569,-1.72185 -2.56515,-3.51748 -2.94936,-4.37785 -0.38421,-0.86037 0.2206,-0.73174 1.5729,0.1444 1.3523,0.87614 3.36571,2.41338 4.88777,3.45925 1.52204,1.04588 2.44766,1.49534 2.33399,0.9055 -0.11367,-0.58984 -1.24263,-2.19495 -2.49739,-3.92588 -1.25476,-1.73093 -2.51602,-3.46835 -2.8127,-4.2412 -0.29667,-0.77284 0.41804,-0.53429 1.83144,0.40294 1.41337,0.9372 3.43386,2.48153 4.90463,3.47614 1.47078,0.9946 2.29066,1.33832 2.08548,0.65698 -0.20518,-0.68135 -1.404,-2.35634 -2.66184,-4.09034"
     style="fill:none;fill-opacity:0.38367345;stroke:#ff6600;stroke-width:1.5;stroke-miterlimit:4;stroke-dasharray:none;stroke-dashoffset:0"
     inkscape:connector-curvature="0" />
  <path
     style="fill:none;fill-rule:evenodd;stroke:#0000ff;stroke-width:2;stroke-linecap:butt;stroke-linejoin:miter;stroke-miterlimit:4;stroke-dasharray:none;stroke-opacity:1;marker-end:url(#Arrow1Send)"
     d="M 95.277165,140.17326 C 133.4574,82.934673 133.4574,82.934673 133.4574,82.934673"
     id="path9909"
     inkscape:connector-curvature="0" />
  <path
     style="fill:none;fill-rule:evenodd;stroke:#0000ff;stroke-width:2.10458159;stroke-linecap:butt;stroke-linejoin:miter;stroke-miterlimit:4;stroke-dasharray:none;stroke-opacity:1;marker-end:url(#marker10302)"
     d="m 134.96431,79.535763 c 37.04493,-17.8702 37.04493,-17.8702 37.04493,-17.8702"
     id="path10300"
     inkscape:connector-curvature="0" />
  <path
     style="fill:none;fill-rule:evenodd;stroke:#0000ff;stroke-width:2;stroke-linecap:butt;stroke-linejoin:miter;stroke-miterlimit:4;stroke-dasharray:none;stroke-opacity:1;marker-end:url(#marker10662)"
     d="m 175.23974,60.072453 c 17.85937,17.8594 17.85937,17.8594 17.85937,17.8594"
     id="path10654"
     inkscape:connector-curvature="0" />
  <path
     style="fill:none;fill-rule:evenodd;stroke:#0000ff;stroke-width:2;stroke-linecap:butt;stroke-linejoin:miter;stroke-miterlimit:4;stroke-dasharray:none;stroke-opacity:1;marker-end:url(#marker10784)"
     d="m 175.06236,219.80433 c 58.55048,-56.86082 58.55048,-56.86082 58.55048,-56.86082"
     id="path10776"
     inkscape:connector-curvature="0" />
  <path
     style="fill:none;fill-rule:evenodd;stroke:#0000ff;stroke-width:2;stroke-linecap:butt;stroke-linejoin:miter;stroke-miterlimit:4;stroke-dasharray:none;stroke-opacity:1;marker-end:url(#marker10784-6)"
     d="m 174.87059,220.63928 c -37.1201,37.11182 -37.1201,37.11182 -37.1201,37.11182"
     id="path10776-0"
     inkscape:connector-curvature="0" />
  <path
     style="fill:#0000ff;fill-rule:evenodd;stroke:#0000ff;stroke-width:1.91763246;stroke-linecap:butt;stroke-linejoin:miter;stroke-miterlimit:4;stroke-dasharray:none;stroke-opacity:1;marker-end:url(#marker10896)"
     d="m 235.31542,160.14814 c -36.77314,0 -36.77314,0 -36.77314,0"
     id="path12171"
     inkscape:connector-curvature="0" />
  <ellipse
     style="fill:none;fill-opacity:0.38367345;stroke:#000000;stroke-width:0.90909129;stroke-miterlimit:4;stroke-dasharray:none;stroke-dashoffset:0"
     id="path12431-6"
     cx="55.315426"
     cy="180.14818"
     rx="4.5454545"
     ry="4.5454526" />
  <ellipse
     style="fill:none;fill-opacity:0.38367345;stroke:#000000;stroke-width:0.90909129;stroke-miterlimit:4;stroke-dasharray:none;stroke-dashoffset:0"
     id="path12431-3"
     cx="95.315422"
     cy="140.14818"
     rx="4.5454545"
     ry="4.5454526" />
  <ellipse
     style="fill:none;fill-opacity:0.38367345;stroke:#000000;stroke-width:0.90909129;stroke-miterlimit:4;stroke-dasharray:none;stroke-dashoffset:0"
     id="path12431-2"
     cx="135.31543"
     cy="80.148178"
     rx="4.5454545"
     ry="4.5454526" />
  <ellipse
     style="fill:none;fill-opacity:0.38367345;stroke:#000000;stroke-width:0.90909129;stroke-miterlimit:4;stroke-dasharray:none;stroke-dashoffset:0"
     id="path12431-0"
     cx="175.31543"
     cy="60.148174"
     rx="4.5454545"
     ry="4.5454526" />
  <ellipse
     style="fill:none;fill-opacity:0.38367345;stroke:#000000;stroke-width:0.90909129;stroke-miterlimit:4;stroke-dasharray:none;stroke-dashoffset:0"
     id="path12431-61"
     cx="195.31543"
     cy="80.148178"
     rx="4.5454545"
     ry="4.5454526" />
  <ellipse
     style="fill:none;fill-opacity:0.38367345;stroke:#000000;stroke-width:0.90909129;stroke-miterlimit:4;stroke-dasharray:none;stroke-dashoffset:0"
     id="path12431-5"
     cx="175.31543"
     cy="220.14818"
     rx="4.5454545"
     ry="4.5454526" />
  <ellipse
     style="fill:none;fill-opacity:0.38367345;stroke:#000000;stroke-width:0.90909129;stroke-miterlimit:4;stroke-dasharray:none;stroke-dashoffset:0"
     id="path12431-54"
     cx="235.31543"
     cy="160.14818"
     rx="4.5454545"
     ry="4.5454526" />
  <ellipse
     style="fill:none;fill-opacity:0.38367345;stroke:#000000;stroke-width:0.90909129;stroke-miterlimit:4;stroke-dasharray:none;stroke-dashoffset:0"
     id="path12431-7"
     cx="195.31543"
     cy="160.14818"
     rx="4.5454545"
     ry="4.5454526" />
  <text
     xml:space="preserve"
     style="font-style:normal;font-weight:normal;font-size:10px;line-height:125%;font-family:sans-serif;letter-spacing:0px;word-spacing:0px;fill:#000000;fill-opacity:1;stroke:none;stroke-width:1px;stroke-linecap:butt;stroke-linejoin:miter;stroke-opacity:1"
     x="57.449215"
     y="193.82982"
     id="text12511"
     sodipodi:linespacing="125%"><tspan
       sodipodi:role="line"
       id="tspan12513"
       x="57.449215"
       y="193.82982">(1,1)</tspan></text>
  <text
     xml:space="preserve"
     style="font-style:normal;font-weight:normal;font-size:10px;line-height:125%;font-family:sans-serif;letter-spacing:0px;word-spacing:0px;fill:#000000;fill-opacity:1;stroke:none;stroke-width:1px;stroke-linecap:butt;stroke-linejoin:miter;stroke-opacity:1"
     x="102.44921"
     y="147.73607"
     id="text12511-3"
     sodipodi:linespacing="125%"><tspan
       sodipodi:role="line"
       id="tspan12513-7"
       x="102.44921"
       y="147.73607">(1,2)</tspan></text>
  <text
     xml:space="preserve"
     style="font-style:normal;font-weight:normal;font-size:10px;line-height:125%;font-family:sans-serif;letter-spacing:0px;word-spacing:0px;fill:#000000;fill-opacity:1;stroke:none;stroke-width:1px;stroke-linecap:butt;stroke-linejoin:miter;stroke-opacity:1"
     x="182.44922"
     y="233.82982"
     id="text12511-3-4"
     sodipodi:linespacing="125%"><tspan
       sodipodi:role="line"
       id="tspan12513-7-5"
       x="182.44922"
       y="233.82982">(1,3)</tspan></text>
  <text
     xml:space="preserve"
     style="font-style:normal;font-weight:normal;font-size:10px;line-height:125%;font-family:sans-serif;letter-spacing:0px;word-spacing:0px;fill:#000000;fill-opacity:1;stroke:none;stroke-width:1px;stroke-linecap:butt;stroke-linejoin:miter;stroke-opacity:1"
     x="142.44922"
     y="92.736069"
     id="text12511-3-2"
     sodipodi:linespacing="125%"><tspan
       sodipodi:role="line"
       id="tspan12513-7-54"
       x="142.44922"
       y="92.736069">(2,1)</tspan></text>
  <text
     xml:space="preserve"
     style="font-style:normal;font-weight:normal;font-size:10px;line-height:125%;font-family:sans-serif;letter-spacing:0px;word-spacing:0px;fill:#000000;fill-opacity:1;stroke:none;stroke-width:1px;stroke-linecap:butt;stroke-linejoin:miter;stroke-opacity:1"
     x="182.44922"
     y="57.736065"
     id="text12511-3-2-7"
     sodipodi:linespacing="125%"><tspan
       sodipodi:role="line"
       id="tspan12513-7-54-4"
       x="182.44922"
       y="57.736065">(2,2)</tspan></text>
  <text
     xml:space="preserve"
     style="font-style:normal;font-weight:normal;font-size:10px;line-height:125%;font-family:sans-serif;letter-spacing:0px;word-spacing:0px;fill:#000000;fill-opacity:1;stroke:none;stroke-width:1px;stroke-linecap:butt;stroke-linejoin:miter;stroke-opacity:1"
     x="202.44922"
     y="87.736069"
     id="text12511-3-2-7-4"
     sodipodi:linespacing="125%"><tspan
       sodipodi:role="line"
       id="tspan12513-7-54-4-3"
       x="202.44922"
       y="87.736069">(2,3)</tspan></text>
  <text
     xml:space="preserve"
     style="font-style:normal;font-weight:normal;font-size:10px;line-height:125%;font-family:sans-serif;letter-spacing:0px;word-spacing:0px;fill:#000000;fill-opacity:1;stroke:none;stroke-width:1px;stroke-linecap:butt;stroke-linejoin:miter;stroke-opacity:1"
     x="227.44922"
     y="152.73607"
     id="text12511-3-2-7-4-0"
     sodipodi:linespacing="125%"><tspan
       sodipodi:role="line"
       id="tspan12513-7-54-4-3-7"
       x="227.44922"
       y="152.73607">(3,1)</tspan></text>
  <text
     xml:space="preserve"
     style="font-style:normal;font-weight:normal;font-size:10px;line-height:125%;font-family:sans-serif;letter-spacing:0px;word-spacing:0px;fill:#000000;fill-opacity:1;stroke:none;stroke-width:1px;stroke-linecap:butt;stroke-linejoin:miter;stroke-opacity:1"
     x="182.44922"
     y="152.73607"
     id="text12511-3-2-7-4-0-8"
     sodipodi:linespacing="125%"><tspan
       sodipodi:role="line"
       id="tspan12513-7-54-4-3-7-6"
       x="182.44922"
       y="152.73607">(3,2)</tspan></text>
  <ellipse
     style="fill:none;fill-opacity:0.38367345;stroke:#000000;stroke-width:0.90909129;stroke-miterlimit:4;stroke-dasharray:none;stroke-dashoffset:0"
     id="path12431-5-8"
     cx="135.31543"
     cy="260.14816"
     rx="4.5454545"
     ry="4.5454526" />
  <text
     xml:space="preserve"
     style="font-style:normal;font-weight:normal;font-size:10px;line-height:125%;font-family:sans-serif;letter-spacing:0px;word-spacing:0px;fill:#000000;fill-opacity:1;stroke:none;stroke-width:1px;stroke-linecap:butt;stroke-linejoin:miter;stroke-opacity:1"
     x="142.44922"
     y="268.8298"
     id="text12511-3-4-8"
     sodipodi:linespacing="125%"><tspan
       sodipodi:role="line"
       id="tspan12513-7-5-4"
       x="142.44922"
       y="268.8298">(4,1)</tspan></text>
  <text
     sodipodi:linespacing="125%"
     id="text5450-79-3"
     y="250.00658"
     x="279.2168"
     style="font-style:normal;font-weight:normal;font-size:17.5px;line-height:125%;font-family:sans-serif;letter-spacing:0px;word-spacing:0px;fill:#000000;fill-opacity:1;stroke:none;stroke-width:1px;stroke-linecap:butt;stroke-linejoin:miter;stroke-opacity:1"
     xml:space="preserve"><tspan
       style="font-size:10px"
       y="250.00658"
       x="279.2168"
       id="tspan5452-20-1"
       sodipodi:role="line">X</tspan></text>
  <text
     sodipodi:linespacing="125%"
     id="text5450-79-3-4"
     y="25.006575"
     x="44.216793"
     style="font-style:normal;font-weight:normal;font-size:17.5px;line-height:125%;font-family:sans-serif;letter-spacing:0px;word-spacing:0px;fill:#000000;fill-opacity:1;stroke:none;stroke-width:1px;stroke-linecap:butt;stroke-linejoin:miter;stroke-opacity:1"
     xml:space="preserve"><tspan
       style="font-size:10px"
       y="25.006575"
       x="44.216793"
       id="tspan5452-20-1-9"
       sodipodi:role="line">Y</tspan></text>
</svg>
